<svg width="167" height="133" viewBox="0 0 167 133" fill="none" xmlns="http://www.w3.org/2000/svg">
<g clip-path="url(#clip0_1_3217)">
<path d="M141.833 54.9572C140.535 54.3309 138.973 54.8756 138.346 56.1705C137.72 57.4687 138.262 59.0278 139.56 59.6573C153.888 66.5884 161.779 75.5843 161.779 84.9845C161.779 94.3848 154.378 101.107 148.171 105.364C146.98 106.179 146.68 107.804 147.496 108.991C148.001 109.728 148.816 110.126 149.648 110.126C150.154 110.126 150.669 109.979 151.123 109.669C161.508 102.546 166.997 94.0097 166.997 84.9845C166.997 73.4739 158.06 62.8114 141.83 54.9604L141.833 54.9572Z" fill="#15B8C7"/>
<path d="M138.398 111.786L113.185 109.437C111.773 109.294 110.478 110.357 110.344 111.792C110.21 113.228 111.267 114.5 112.702 114.633L125.146 115.791C112.686 119.526 98.4778 121.512 83.5033 121.512C41.0716 121.512 5.22201 104.783 5.22201 84.981C5.22201 75.6329 13.0404 66.673 27.2386 59.7516C28.5335 59.1189 29.0717 57.5565 28.4389 56.2616C27.8094 54.97 26.2568 54.4252 24.9521 55.058C8.85883 62.9057 0 73.5324 0 84.9843C0 108.397 36.6748 126.734 83.5 126.734C98.5398 126.734 112.865 124.784 125.544 121.114L116.737 128.143C115.612 129.044 115.426 130.684 116.326 131.813C116.841 132.459 117.601 132.795 118.368 132.795C118.939 132.795 119.513 132.609 119.992 132.224L139.781 116.424C140.613 115.759 140.958 114.656 140.652 113.635C140.345 112.618 139.455 111.884 138.395 111.786H138.398Z" fill="#15B8C7"/>
<path d="M125.297 22.0947L87.3013 0.984878C84.9365 -0.329595 82.063 -0.329595 79.6982 0.984878L41.7025 22.0915C40.4695 22.7764 39.4682 23.768 38.7734 24.9389L83.5014 53.6682L128.22 24.9487C127.525 23.7745 126.53 22.7797 125.297 22.0915V22.0947Z" fill="#15B8C7"/>
<path d="M128.222 24.9486C128.93 26.1391 129.325 27.5025 129.325 28.9344V73.1829C129.325 76.0271 127.782 78.6462 125.297 80.026L87.3009 101.133C86.1201 101.788 84.8089 102.118 83.501 102.118L79.0977 73.2416L83.501 49.7833L128.222 24.9453V24.9486Z" fill="#00FFFF"/>
<path d="M38.7756 24.9395C38.0678 26.13 37.6797 27.5032 37.6797 28.9351V73.1835C37.6797 76.0278 39.2225 78.6469 41.7079 80.0266L79.7037 101.133C80.8844 101.789 82.1956 102.118 83.5036 102.118V49.784L38.7756 24.9395Z" fill="black"/>
</g>
<defs>
<clipPath id="clip0_1_3217">
<rect width="167" height="132.794" fill="white"/>
</clipPath>
</defs>
</svg>
