<svg width="143" height="120" viewBox="0 0 143 120" fill="none" xmlns="http://www.w3.org/2000/svg">
<g clip-path="url(#clip0_1_3258)">
<path d="M0 3.45267V116.547C0 118.455 1.54605 120 3.4493 120H139.434C141.34 120 142.884 118.452 142.884 116.547V3.45267C142.884 1.54476 141.338 0 139.434 0H3.4493C1.54605 0 0 1.54756 0 3.45267Z" fill="#15B8C7"/>
<path d="M8.91406 103.599V10.6482C8.91406 9.69565 9.68709 8.92188 10.6387 8.92188H125.066L131.959 9.07272C132.91 9.07272 133.368 9.67051 133.368 10.6231L133.683 103.608C133.683 104.56 132.91 105.178 131.959 105.178L125.202 105.326H10.6387C9.68709 105.326 8.91406 104.552 8.91406 103.599Z" fill="black"/>
<path d="M55.1914 64.0057V76.4113H65.8072C67.0575 76.4113 67.9672 75.2213 67.6379 74.0118L64.917 64.0029H55.1914V64.0057Z" fill="#15B8C7"/>
<path d="M94.9819 27.1522V78.0065C94.9819 78.0065 83.6209 66.2071 73.6051 66.2071H72.2488L66.5 51.8293L72.2488 38.9488H73.6051C83.6209 38.9488 94.9819 27.1494 94.9819 27.1494V27.1522Z" fill="#15B8C7"/>
<path d="M37.0884 44.876C34.7331 44.876 32.8242 46.7867 32.8242 49.1443V56.0162C32.8242 58.3738 34.7331 60.2845 37.0884 60.2845H51.8931V44.876H37.0884Z" fill="#15B8C7"/>
<path d="M47.1484 63.1289V88.577C47.1484 89.7642 48.1112 90.7252 49.2945 90.7252H55.9698C57.1559 90.7252 58.1159 89.7614 58.1159 88.577V63.1289H47.1484Z" fill="#15B8C7"/>
<path d="M72.2496 38.952H44.5882C42.8914 38.952 41.5156 40.3292 41.5156 42.0276V63.1319C41.5156 64.8303 42.8914 66.2075 44.5882 66.2075H72.2496V38.9492V38.952Z" fill="#00FFFF"/>
<path d="M90.7422 26.046V79.1183C90.7422 80.5122 91.8724 81.6436 93.265 81.6436H96.6947C98.0873 81.6436 99.2175 80.5122 99.2175 79.1183V26.046C99.2175 24.6521 98.0873 23.5208 96.6947 23.5208H93.265C91.8724 23.5208 90.7422 24.6521 90.7422 26.046Z" fill="#00FFFF"/>
<path d="M117.901 54.6757H109.878C108.723 54.6757 107.785 53.7371 107.785 52.5807C107.785 51.4242 108.723 50.4856 109.878 50.4856H117.901C119.057 50.4856 119.994 51.4242 119.994 52.5807C119.994 53.7371 119.057 54.6757 117.901 54.6757Z" fill="#15B8C7"/>
<path d="M108.161 45.6609C107.438 45.6609 106.735 45.2838 106.347 44.6133C105.769 43.6105 106.113 42.3311 107.112 41.7529L114.06 37.7359C115.062 37.1577 116.34 37.5013 116.918 38.5013C117.496 39.5042 117.153 40.7835 116.153 41.3618L109.205 45.3787C108.875 45.5687 108.515 45.6609 108.161 45.6609Z" fill="#15B8C7"/>
<path d="M115.106 67.7067C114.752 67.7067 114.392 67.6173 114.062 67.4245L107.113 63.4076C106.112 62.8293 105.768 61.5472 106.349 60.5471C106.926 59.5443 108.205 59.2007 109.206 59.7817L116.155 63.7987C117.157 64.3769 117.5 65.6591 116.92 66.6591C116.532 67.3323 115.829 67.7067 115.106 67.7067Z" fill="#15B8C7"/>
</g>
<defs>
<clipPath id="clip0_1_3258">
<rect width="142.884" height="120" fill="white"/>
</clipPath>
</defs>
</svg>
