<svg width="118" height="124" viewBox="0 0 118 124" fill="none" xmlns="http://www.w3.org/2000/svg">
<g clip-path="url(#clip0_1_3232)">
<path d="M2.64062 39.7129H118.002V118.505C118.002 121.539 115.552 124 112.528 124H8.11917C5.0954 124 2.64062 121.545 2.64062 118.51C2.64062 118.51 2.64062 118.508 2.64062 118.505V39.7129Z" fill="#15B8C7"/>
<path d="M4.43144 20.1144L106.958 0.103042C109.927 -0.476093 112.802 1.46795 113.379 4.44791L115.931 17.6157L2.65403 39.7262L0.10171 26.5583C-0.475407 23.5784 1.46186 20.6936 4.43144 20.1144Z" fill="black"/>
<path d="M2.64062 39.7158H117.999V58.6179H2.64062V39.7158Z" fill="black"/>
<path d="M27.2237 58.6179L38.9557 39.7158H20.7996L9.07031 58.6179H27.2237Z" fill="white"/>
<path d="M75.2631 39.7158L63.5311 58.6179H45.375L57.107 39.7158H75.2631Z" fill="white"/>
<path d="M81.6875 58.6179L93.4195 39.7158H111.576L99.8436 58.6179H81.6875Z" fill="white"/>
<path d="M76.6445 6.02245L91.7552 22.3307L109.578 18.8558L94.4674 2.54492L76.6445 6.02245Z" fill="white"/>
<path d="M56.1107 29.2857L41 12.9748L58.8229 9.5L73.9336 25.8109L56.1107 29.2857Z" fill="white"/>
<path d="M38.289 32.7606L23.1783 16.4524L5.35547 19.9272L20.4662 36.2381L38.289 32.7606Z" fill="white"/>
<path d="M97.5197 89.4068H74.6193V76.8671H97.5197C98.5683 76.8671 99.4164 76.016 99.4164 74.9638C99.4164 73.9116 98.5683 73.0605 97.5197 73.0605H23.1232C22.0746 73.0605 21.2266 73.9116 21.2266 74.9638C21.2266 76.016 22.0746 76.8671 23.1232 76.8671H46.0263V89.4068H23.1232C22.0746 89.4068 21.2266 90.2578 21.2266 91.3101C21.2266 92.3623 22.0746 93.2133 23.1232 93.2133H97.5197C98.5683 93.2133 99.4164 92.3623 99.4164 91.3101C99.4164 90.2578 98.5683 89.4068 97.5197 89.4068ZM49.8196 76.8671H70.8261V89.4068H49.8196V76.8671Z" fill="white"/>
<path d="M97.5197 105.753H23.1232C22.0746 105.753 21.2266 106.604 21.2266 107.656C21.2266 108.709 22.0746 109.56 23.1232 109.56H97.5197C98.5683 109.56 99.4164 108.709 99.4164 107.656C99.4164 106.604 98.5683 105.753 97.5197 105.753Z" fill="white"/>
</g>
<defs>
<clipPath id="clip0_1_3232">
<rect width="118" height="124" fill="white"/>
</clipPath>
</defs>
</svg>
