<svg width="100" height="100" viewBox="0 0 100 100" fill="none" xmlns="http://www.w3.org/2000/svg">
<circle cx="50" cy="50" r="47.5" stroke="white" stroke-width="5"/>
<path d="M67.5188 43.8803C67.3097 43.5785 67.0796 43.2698 66.8312 42.9576C67.2266 45.8354 67.1809 50.0292 64.2159 50.4505C63.6561 50.5298 63.0882 50.3659 62.5722 50.1435C60.5834 49.2845 59.1452 47.5909 57.8658 45.9026C55.6825 43.0195 53.7201 39.9568 51.1623 37.3519C48.7607 34.9049 45.4058 31.7436 41.9093 30.9273C41.3121 30.7878 40.7158 30.8297 40.1506 30.977C39.9205 31.9747 39.9606 32.9881 40.2264 33.7878C40.9176 35.8694 43.164 38.1586 46.1318 41.6713C49.0995 45.184 50.5487 47.1802 50.8966 48.6174C51.2034 49.8836 51.1057 50.6537 51.1057 50.6537C51.1057 50.6537 51.1614 50.9641 50.9998 51.6278C52.1805 51.3827 53.1475 51.3644 53.5786 51.7385C54.951 52.9289 50.6875 58.3733 48.096 60.6415C45.9318 62.5348 43.0115 65.7406 41.3267 65.1676C41.1213 65.5827 40.9505 66.0065 40.7944 66.4748C40.0173 68.8164 40.7387 72.7224 44.9748 72.9919C46.203 73.0703 47.7572 72.5741 49.3525 71.8224C47.9005 71.9462 46.4313 71.8721 45.172 71.4483C44.5155 71.2276 43.9064 70.7768 43.6854 70.1463C42.5303 66.8481 48.0603 63.5229 50.1095 61.7194C52.3531 59.7459 54.1164 57.5431 56.1473 55.4161C58.0421 53.4321 60.6893 52.0996 63.4872 51.7882C64.8597 51.6356 66.4221 51.7882 67.3298 52.7841C68.085 53.6135 68.2932 54.9539 68.1872 56.3788C70.1049 53.1129 69.9989 50.6528 69.9989 50.6528C69.9989 50.6528 70.1286 47.6529 67.5188 43.8794V43.8803Z" fill="white"/>
<path d="M41.9093 30.9273C45.4067 31.7436 48.7607 34.9049 51.1623 37.3519M41.9093 30.9273C41.3121 30.7887 40.7158 30.8305 40.1506 30.977M41.9093 30.9273C45.4058 31.7436 48.7607 34.9049 51.1623 37.3519M41.9093 30.9273C41.3121 30.7878 40.7158 30.8297 40.1506 30.977M51.1623 37.3519C53.7201 39.9577 55.6815 43.0204 57.8658 45.9026M51.1623 37.3519C53.7201 39.9568 55.6825 43.0195 57.8658 45.9026M57.8658 45.9026C59.1452 47.5909 60.5834 49.2845 62.5722 50.1435M62.5722 50.1435C63.0882 50.3667 63.6561 50.5307 64.2159 50.4505M62.5722 50.1435C63.0882 50.3659 63.6561 50.5298 64.2159 50.4505M64.2159 50.4505C67.1809 50.0292 67.2266 45.8354 66.8312 42.9576M66.8312 42.9576C63.6342 38.9321 57.4202 34.1732 54.226 31.904C51.3924 29.8904 47.6156 26.8303 44.836 27.0074C42.0463 27.1853 40.5953 29.0532 40.1506 30.977M66.8312 42.9576C67.0796 43.2698 67.3097 43.5785 67.5188 43.8803V43.8794C70.1286 47.6529 69.9989 50.6528 69.9989 50.6528C69.9989 50.6528 70.1049 53.1129 68.1872 56.3788C68.2932 54.9539 68.085 53.6135 67.3298 52.7841C66.4221 51.7882 64.8597 51.6356 63.4872 51.7882C60.6893 52.0996 58.0421 53.4321 56.1473 55.4161C54.1164 57.5431 52.3531 59.7459 50.1095 61.7194C48.0603 63.5229 42.5303 66.8481 43.6854 70.1463C43.9064 70.7768 44.5155 71.2276 45.172 71.4483C46.4313 71.8721 47.9005 71.9462 49.3525 71.8224C47.7572 72.5741 46.203 73.0703 44.9748 72.9919C40.7387 72.7224 40.0173 68.8164 40.7944 66.4748C40.9505 66.0065 41.1213 65.5827 41.3267 65.1676C43.0115 65.7406 45.9318 62.5348 48.096 60.6415C50.6875 58.3733 54.951 52.9289 53.5786 51.7385C53.1475 51.3644 52.1805 51.3827 50.9998 51.6278C51.1614 50.9641 51.1057 50.6537 51.1057 50.6537C51.1057 50.6537 51.2034 49.8836 50.8966 48.6174C50.5487 47.1802 49.0995 45.184 46.1318 41.6713C43.164 38.1586 40.9176 35.8694 40.2264 33.7878C39.9606 32.9881 39.9205 31.9747 40.1506 30.977M67.3298 52.785C66.4221 51.7891 64.8606 51.6365 63.4872 51.7891C60.6893 52.0995 58.0421 53.4321 56.1473 55.4169C54.1164 57.5439 52.3531 59.7468 50.1095 61.7203C48.0604 63.5228 42.5303 66.8489 43.6854 70.1471C43.9064 70.7776 44.5155 71.2285 45.172 71.4491C46.4313 71.8729 47.9005 71.9462 49.3525 71.8232C51.3687 70.8735 53.4516 69.5157 55.0341 68.3916C58.4758 65.9463 64.6168 61.6217 67.5179 57.427C67.7644 57.0704 67.9863 56.7215 68.1863 56.3805C68.2923 54.9556 68.0841 53.6152 67.3289 52.7859L67.3298 52.785ZM48.096 60.6406C50.6875 58.3732 54.951 52.928 53.5786 51.7376C53.1476 51.3635 52.1805 51.3818 50.9998 51.6269C50.9633 51.776 50.9158 51.9434 50.8546 52.1292C50.3898 53.5358 48.4165 56.1747 45.4487 59.6875C43.1494 62.4092 42.0344 63.7374 41.3277 65.1658C43.0115 65.7388 45.9327 62.533 48.0969 60.6398L48.096 60.6406Z" stroke="white" stroke-linecap="round" stroke-linejoin="round"/>
</svg>
