<svg width="150" height="101" viewBox="0 0 150 101" fill="none" xmlns="http://www.w3.org/2000/svg">
<g clip-path="url(#clip0_1_3279)">
<path d="M150 0H0V101H150V0Z" fill="#15B8C7"/>
<path d="M28.6167 40.3975C27.5719 40.3975 26.6347 40.5347 25.6877 40.8314C21.5474 42.089 18.5352 45.9402 18.5352 50.4999C18.5352 56.077 23.0474 60.5999 28.6167 60.5999C33.4985 60.5999 37.5727 57.1213 38.5001 52.5028C38.6298 51.8556 38.6983 51.1839 38.6983 50.4975C38.6983 44.9179 34.1836 40.3975 28.6143 40.3975H28.6167Z" fill="black"/>
<path d="M12.8595 33.0113H19.2755C19.5545 33.0113 19.7796 32.7858 19.7796 32.5063V19.6754C19.7796 19.3959 20.0047 19.1704 20.2837 19.1704H33.0912C33.3702 19.1704 33.5953 18.9448 33.5953 18.6654V12.2401C33.5953 11.9606 33.3702 11.7351 33.0912 11.7351H12.8595C12.5806 11.7351 12.3555 11.9606 12.3555 12.2401V32.5063C12.3555 32.7858 12.5806 33.0113 12.8595 33.0113Z" fill="black"/>
<path d="M137.136 11.7351H116.906C116.627 11.7351 116.402 11.9606 116.402 12.2401V18.6654C116.402 18.9448 116.627 19.1704 116.906 19.1704H129.714C129.993 19.1704 130.218 19.3959 130.218 19.6754V32.5063C130.218 32.7858 130.443 33.0113 130.722 33.0113H137.136C137.415 33.0113 137.64 32.7858 137.64 32.5063V12.2401C137.64 11.9606 137.415 11.7351 137.136 11.7351Z" fill="black"/>
<path d="M33.0887 81.8297H20.2812C20.0023 81.8297 19.7772 81.6042 19.7772 81.3247V68.4938C19.7772 68.2143 19.552 67.9888 19.2731 67.9888H12.8595C12.5806 67.9888 12.3555 68.2143 12.3555 68.4938V88.76C12.3555 89.0394 12.5806 89.265 12.8595 89.265H33.0887C33.3677 89.265 33.5928 89.0394 33.5928 88.76V82.3347C33.5928 82.0552 33.3677 81.8297 33.0887 81.8297Z" fill="black"/>
<path d="M137.136 67.9888H130.722C130.443 67.9888 130.218 68.2143 130.218 68.4938V81.3247C130.218 81.6042 129.993 81.8297 129.714 81.8297H116.906C116.627 81.8297 116.402 82.0552 116.402 82.3347V88.76C116.402 89.0394 116.627 89.265 116.906 89.265H137.136C137.415 89.265 137.64 89.0394 137.64 88.76V68.4913C137.64 68.2119 137.415 67.9863 137.136 67.9863V67.9888Z" fill="black"/>
<path d="M80.598 40.525H88.1298C89.8941 40.525 91.4137 39.1669 91.4969 37.4018C91.585 35.5166 90.085 33.96 88.2228 33.96H77.8256H77.0695C75.2587 33.96 73.793 35.4284 73.793 37.2425V63.7599C73.793 65.5739 75.2587 67.0424 77.0695 67.0424H77.8256H88.2228C90.085 67.0424 91.585 65.4857 91.4969 63.6005C91.4137 61.8355 89.8966 60.4749 88.1298 60.4749H80.598C80.4585 60.4749 80.346 60.3621 80.346 60.2224V54.0349C80.346 53.8952 80.4585 53.7824 80.598 53.7824H86.8819C88.6461 53.7824 90.1657 52.4243 90.2489 50.6593C90.337 48.7741 88.837 47.2174 86.9749 47.2174H80.598C80.4585 47.2174 80.346 47.1047 80.346 46.9649V40.7775C80.346 40.6377 80.4585 40.525 80.598 40.525Z" fill="black"/>
<path d="M124.003 62.1247C124.194 61.8943 124.35 61.6492 124.468 61.3893C125.072 60.0778 124.754 58.4721 123.597 57.4988C122.209 56.3344 120.144 56.5158 118.979 57.9058C118.749 58.1803 118.497 58.4402 118.238 58.6731C116.899 59.8694 115.189 60.4749 113.153 60.4749C107.662 60.4749 103.196 55.9986 103.196 50.4999C103.196 45.0013 107.662 40.525 113.153 40.525C115.147 40.525 117.073 41.1133 118.717 42.2263C120.217 43.2412 122.256 42.8465 123.266 41.3437C124.279 39.841 123.885 37.8014 122.385 36.7865C119.652 34.9381 116.459 33.96 113.15 33.96C109.431 33.96 105.995 35.1955 103.233 37.2817C99.232 40.3068 96.6406 45.1067 96.6406 50.4999C96.6406 59.6218 104.048 67.0424 113.153 67.0424C116.792 67.0424 120.056 65.8461 122.596 63.5785C123.093 63.1347 123.567 62.6469 124 62.1272L124.003 62.1247Z" fill="black"/>
<path d="M60.0873 53.802C64.2472 52.4341 67.2521 48.6172 67.2521 44.1335C67.2521 38.5221 62.5221 33.96 56.708 33.96H49.9348H49.6828C47.872 33.96 46.4062 35.4284 46.4062 37.2425V63.6667C46.4062 65.4342 47.7619 66.9566 49.5237 67.0399C49.6632 67.0473 49.7978 67.0448 49.9348 67.0326C51.6257 66.9026 52.9593 65.4881 52.9593 63.7599V56.8271C52.9593 56.5943 53.248 56.4864 53.3997 56.6604L61.5115 65.9245C62.1599 66.6648 63.0653 67.0424 63.9756 67.0424C64.7806 67.0424 65.5906 66.7457 66.2293 66.1427C67.5188 64.9194 67.5506 62.8675 66.381 61.529L59.9748 54.2114C59.8549 54.0742 59.916 53.8609 60.0898 53.8045L60.0873 53.802ZM56.7056 47.7764H53.2089C53.0694 47.7764 52.9568 47.6636 52.9568 47.5239V40.7775C52.9568 40.6377 53.0694 40.525 53.2089 40.525H56.7056C58.8687 40.525 60.6966 42.1772 60.6966 44.1335C60.6966 46.0898 58.8687 47.7764 56.7056 47.7764Z" fill="black"/>
</g>
<defs>
<clipPath id="clip0_1_3279">
<rect width="150" height="101" fill="white"/>
</clipPath>
</defs>
</svg>
